<svg xmlns="http://www.w3.org/2000/svg" xmlns:xlink="http://www.w3.org/1999/xlink" fill="none" version="1.1" width="51" height="24" viewBox="0 0 51 24"><g><g><path d="M25.5,15C24.3946,15,23.4528,15.7607,23.0126,16.7747C21.1666,21.0264,16.9305,24,12,24C5.3726,24,0,18.6274,0,12C0,5.71605,4.83015,0.56025,10.9803,0.0426998C10.9914,0.0417998,11,0.0325005,11,0.0214005C11,0.00955045,11.0096,0,11.0214,0C11.0214,0,12,0,12,0C12,0,39,0,39,0C45.6275,0,51,5.3726,51,12C51,18.6274,45.6275,24,39,24C34.0695,24,29.8334,21.0264,27.9874,16.7747C27.5472,15.7607,26.6054,15,25.5,15C25.5,15,25.5,15,25.5,15Z" fill-rule="evenodd" fill="#28D1C6" fill-opacity="1"/></g><g><path d="M39.00019454956055,10C40.10476454956055,10,41.00019454956055,9.104569999999999,41.00019454956055,8C41.00019454956055,6.89543,40.10476454956055,6,39.00019454956055,6C37.895624549560544,6,37.00019454956055,6.89543,37.00019454956055,8C37.00019454956055,9.104569999999999,37.895624549560544,10,39.00019454956055,10C39.00019454956055,10,39.00019454956055,10,39.00019454956055,10Z" fill="#FFFFFF" fill-opacity="1"/></g><g><path d="M34.999412536621094,14.0001220703125C36.103982536621096,14.0001220703125,36.999412536621094,13.104692070312499,36.999412536621094,12.0001220703125C36.999412536621094,10.8955520703125,36.103982536621096,10.0001220703125,34.999412536621094,10.0001220703125C33.89484253662109,10.0001220703125,32.999412536621094,10.8955520703125,32.999412536621094,12.0001220703125C32.999412536621094,13.104692070312499,33.89484253662109,14.0001220703125,34.999412536621094,14.0001220703125C34.999412536621094,14.0001220703125,34.999412536621094,14.0001220703125,34.999412536621094,14.0001220703125Z" fill="#FFFFFF" fill-opacity="1"/></g><g><path d="M42.99980545043945,14.0001220703125C44.104375450439456,14.0001220703125,44.99980545043945,13.104692070312499,44.99980545043945,12.0001220703125C44.99980545043945,10.8955520703125,44.104375450439456,10.0001220703125,42.99980545043945,10.0001220703125C41.89523545043945,10.0001220703125,40.99980545043945,10.8955520703125,40.99980545043945,12.0001220703125C40.99980545043945,13.104692070312499,41.89523545043945,14.0001220703125,42.99980545043945,14.0001220703125C42.99980545043945,14.0001220703125,42.99980545043945,14.0001220703125,42.99980545043945,14.0001220703125Z" fill="#FFFFFF" fill-opacity="1"/></g><g><path d="M39.00019454956055,18.000024795532227C40.10476454956055,18.000024795532227,41.00019454956055,17.104594795532226,41.00019454956055,16.000024795532227C41.00019454956055,14.895454795532226,40.10476454956055,14.000024795532227,39.00019454956055,14.000024795532227C37.895624549560544,14.000024795532227,37.00019454956055,14.895454795532226,37.00019454956055,16.000024795532227C37.00019454956055,17.104594795532226,37.895624549560544,18.000024795532227,39.00019454956055,18.000024795532227C39.00019454956055,18.000024795532227,39.00019454956055,18.000024795532227,39.00019454956055,18.000024795532227Z" fill="#FFFFFF" fill-opacity="1"/></g><g><path d="M13.210886032867432,14.986823432922364C13.210886032867432,14.991223432922364,13.210886032867432,14.995673432922363,13.210886032867432,15.000073432922363C13.210886032867432,15.000073432922363,10.198986032867431,15.000073432922363,10.198986032867431,15.000073432922363C10.198986032867431,14.995473432922363,10.198936032867431,14.990873432922363,10.198986032867431,14.986273432922363C10.194786032867432,14.070573432922362,9.77313603286743,13.119573432922364,8.985436032867431,12.472323432922362C8.193786032867433,11.821773432922363,7.120136032867432,11.456323432922364,6.000586032867432,11.456323432922364C6.000586032867432,11.456323432922364,6.000586032867432,9.000073432922363,6.000586032867432,9.000073432922363C7.912886032867432,9.000073432922363,9.746836032867431,9.624322432922364,11.099036032867431,10.735473432922364C11.333036032867431,10.927723432922363,11.549286032867432,11.134123432922364,11.746936032867431,11.352123432922363C11.94908603286743,11.134123432922364,12.168086032867432,10.927723432922363,12.402086032867432,10.735473432922364C13.754286032867432,9.624322432922364,15.588236032867432,9.000073432922363,17.500486032867432,9.000073432922363C17.500486032867432,9.000073432922363,17.500486032867432,11.456323432922364,17.500486032867432,11.456323432922364C16.380986032867433,11.456323432922364,15.30733603286743,11.821773432922363,14.515686032867432,12.472323432922362C13.727836032867431,13.119673432922363,13.215786032867431,14.070923432922363,13.210886032867432,14.986823432922364C13.210886032867432,14.986823432922364,13.210886032867432,14.986823432922364,13.210886032867432,14.986823432922364Z" fill-rule="evenodd" fill="#FFFFFF" fill-opacity="1"/></g></g></svg>